<svg xmlns="http://www.w3.org/2000/svg" viewBox="0 0 500 500"><g id="freepik--background-complete--inject-29"><rect y="382.4" width="500" height="0.25" style="fill:#ebebeb"></rect><rect x="416.78" y="398.49" width="33.12" height="0.25" style="fill:#ebebeb"></rect><rect x="322.53" y="401.21" width="8.69" height="0.25" style="fill:#ebebeb"></rect><rect x="396.59" y="389.21" width="19.19" height="0.25" style="fill:#ebebeb"></rect><rect x="52.46" y="390.89" width="43.19" height="0.25" style="fill:#ebebeb"></rect><rect x="104.56" y="390.89" width="6.33" height="0.25" style="fill:#ebebeb"></rect><rect x="131.47" y="395.11" width="93.68" height="0.25" style="fill:#ebebeb"></rect><path d="M237,337.8H43.91a5.71,5.71,0,0,1-5.7-5.71V60.66A5.71,5.71,0,0,1,43.91,55H237a5.71,5.71,0,0,1,5.71,5.71V332.09A5.71,5.71,0,0,1,237,337.8ZM43.91,55.2a5.46,5.46,0,0,0-5.45,5.46V332.09a5.46,5.46,0,0,0,5.45,5.46H237a5.47,5.47,0,0,0,5.46-5.46V60.66A5.47,5.47,0,0,0,237,55.2Z" style="fill:#ebebeb"></path><path d="M453.31,337.8H260.21a5.72,5.72,0,0,1-5.71-5.71V60.66A5.72,5.72,0,0,1,260.21,55h193.1A5.71,5.71,0,0,1,459,60.66V332.09A5.71,5.71,0,0,1,453.31,337.8ZM260.21,55.2a5.47,5.47,0,0,0-5.46,5.46V332.09a5.47,5.47,0,0,0,5.46,5.46h193.1a5.47,5.47,0,0,0,5.46-5.46V60.66a5.47,5.47,0,0,0-5.46-5.46Z" style="fill:#ebebeb"></path><path d="M146.88,59.44c-1-2.44-3.84-4-8.06-4.6A42.1,42.1,0,0,1,142.89,70C146.48,66,148,62.27,146.88,59.44Z" style="fill:none"></path><path d="M59.84,84.86c6.85-7.06,19.61-15,35.17-21.29,17.66-7.12,34.24-10.18,43.81-8.73a40.3,40.3,0,0,0-2-3.64,43.18,43.18,0,0,0-5.6-7.3A213.63,213.63,0,0,0,91.86,55.76,219.08,219.08,0,0,0,58.22,72.64,42.13,42.13,0,0,0,59.84,84.86Z" style="fill:none"></path><path d="M59.84,84.86c-4.34,4.49-6.31,8.61-5.06,11.7,1.41,3.5,6.66,5.1,14.25,4.94a42.11,42.11,0,0,1-9.19-16.64Z" style="fill:none"></path><path d="M171.79,49.39c-3.19-7.9-19.14-9.53-40.55-5.49a43.18,43.18,0,0,1,5.6,7.3,40.3,40.3,0,0,1,2,3.64c4.22.64,7.08,2.16,8.06,4.6,1.14,2.83-.4,6.51-4,10.55a42.57,42.57,0,0,1-1.44,14.58C162.71,71.7,175.25,58,171.79,49.39Z" style="fill:#e0e0e0"></path><path d="M69,101.5c-7.59.16-12.84-1.44-14.25-4.94-1.25-3.09.72-7.21,5.06-11.7a42.13,42.13,0,0,1-1.62-12.22c-20,12.52-31.7,25.65-28.35,34,3.63,9,23.83,9.86,49.78,3.47A42,42,0,0,1,69,101.5Z" style="fill:#e0e0e0"></path><circle cx="100.61" cy="73.22" r="42.4" transform="matrix(0.99, -0.13, 0.13, 0.99, -8.87, 14.08)" style="fill:#e0e0e0"></circle><path d="M60,85.3q48.37.65,70.09-42.61a42.13,42.13,0,0,0-11.35-7.82Q100.15,72.49,58.24,71.63A42.31,42.31,0,0,0,60,85.3Z" style="fill:#f5f5f5"></path><path d="M70.15,102.72l70.68-43a42.37,42.37,0,0,1,1.86,18.67Q123.37,110.7,85.86,113A42.23,42.23,0,0,1,70.15,102.72Z" style="fill:#f5f5f5"></path><path d="M60,85.3q48.39.65,70.09-42.61a42.85,42.85,0,0,1,10.78,17.07q-24.86,38.73-70.68,43A42.35,42.35,0,0,1,60,85.3Z" style="fill:#ebebeb"></path><path d="M87.25,34.56c.52.85-2.37,3.56-6.46,6s-7.83,3.8-8.35,3,2.38-3.56,6.47-6.05S86.73,33.71,87.25,34.56Z" style="fill:#f5f5f5"></path><path d="M142.89,70c-6.53,7.34-19.84,15.83-36.24,22.44C92.36,98.19,78.77,101.3,69,101.5a42,42,0,0,0,10.62,8.58,226,226,0,0,0,30.15-9.84,220.65,220.65,0,0,0,31.65-15.67A42.57,42.57,0,0,0,142.89,70Z" style="fill:#e0e0e0"></path><circle cx="423.84" cy="232.29" r="30.34" transform="matrix(0.99, -0.13, 0.13, 0.99, -27.2, 58.63)" style="fill:#e0e0e0"></circle><path d="M394.75,240.93q34.61.47,50.15-30.49a30.32,30.32,0,0,0-8.12-5.59q-13.27,26.91-43.26,26.29A30.31,30.31,0,0,0,394.75,240.93Z" style="fill:#f5f5f5"></path><path d="M402,253.39l50.57-30.74A30.36,30.36,0,0,1,454,236q-13.83,23.09-40.67,24.72A30.33,30.33,0,0,1,402,253.39Z" style="fill:#f5f5f5"></path><path d="M394.75,240.93q34.62.45,50.15-30.49a30.67,30.67,0,0,1,7.71,12.21Q434.82,250.37,402,253.39A30.44,30.44,0,0,1,394.75,240.93Z" style="fill:#ebebeb"></path><path d="M414.28,204.62c.37.61-1.7,2.55-4.63,4.33s-5.6,2.72-6,2.11,1.7-2.54,4.63-4.32S413.91,204,414.28,204.62Z" style="fill:#f5f5f5"></path><path d="M440,242.37c-3.49,3.06-7.38,4.34-8.69,2.84s.45-5.19,3.93-8.25,7.38-4.34,8.69-2.85S443.47,239.3,440,242.37Z" style="fill:#e0e0e0"></path><path d="M398.32,81.39a3.16,3.16,0,1,1-3.16-3.16A3.15,3.15,0,0,1,398.32,81.39Z" style="fill:#e0e0e0"></path><path d="M378.37,156.09a3.17,3.17,0,1,1-3.17-3.17A3.17,3.17,0,0,1,378.37,156.09Z" style="fill:#e0e0e0"></path><path d="M436.5,41.77a3.16,3.16,0,1,1-3.16-3.16A3.15,3.15,0,0,1,436.5,41.77Z" style="fill:#e0e0e0"></path><path d="M445.62,148.94a3.16,3.16,0,1,1-3.16-3.16A3.15,3.15,0,0,1,445.62,148.94Z" style="fill:#e0e0e0"></path><circle cx="388.25" cy="245.84" r="3.16" style="fill:#e0e0e0"></circle><circle cx="276.72" cy="214.26" r="3.16" style="fill:#e0e0e0"></circle><path d="M217.24,72.55a3.16,3.16,0,1,1-3.16-3.16A3.17,3.17,0,0,1,217.24,72.55Z" style="fill:#e0e0e0"></path><path d="M158.13,105.89a3.17,3.17,0,1,1-3.17-3.17A3.17,3.17,0,0,1,158.13,105.89Z" style="fill:#e0e0e0"></path><path d="M77.84,179.78a3.17,3.17,0,1,1-3.17-3.16A3.16,3.16,0,0,1,77.84,179.78Z" style="fill:#e0e0e0"></path><circle cx="89.06" cy="129.14" r="1.58" style="fill:#e0e0e0"></circle><circle cx="125.43" cy="181.36" r="1.58" style="fill:#e0e0e0"></circle><circle cx="110.89" cy="176.62" r="1.58" style="fill:#e0e0e0"></circle><circle cx="100.39" cy="215.85" r="1.58" style="fill:#e0e0e0"></circle><circle cx="164.89" cy="78.23" r="1.58" style="fill:#e0e0e0"></circle><circle cx="406.18" cy="64.38" r="1.58" style="fill:#e0e0e0"></circle><circle cx="388.25" cy="45.49" r="1.58" style="fill:#e0e0e0"></circle><circle cx="430.85" cy="182.94" r="1.58" style="fill:#e0e0e0"></circle><circle cx="386.59" cy="154.22" r="1.58" style="fill:#e0e0e0"></circle><circle cx="439.3" cy="284.65" r="1.58" style="fill:#e0e0e0"></circle><circle cx="313.49" cy="275.06" r="1.58" style="fill:#e0e0e0"></circle><circle cx="266.78" cy="314.63" r="1.58" style="fill:#e0e0e0"></circle><circle cx="343.53" cy="215.85" r="1.58" style="fill:#e0e0e0"></circle><circle cx="317.15" cy="260.73" r="1.58" style="fill:#e0e0e0"></circle><circle cx="273.56" cy="325.64" r="1.58" style="fill:#e0e0e0"></circle><circle cx="288.14" cy="214.26" r="1.58" style="fill:#e0e0e0"></circle><circle cx="432.43" cy="301.28" r="1.58" style="fill:#e0e0e0"></circle><circle cx="54.41" cy="138.82" r="1.58" style="fill:#e0e0e0"></circle><circle cx="77.84" cy="135.65" r="1.58" style="fill:#e0e0e0"></circle><circle cx="52.83" cy="297.17" r="1.58" style="fill:#e0e0e0"></circle><circle cx="61.72" cy="196.38" r="1.58" style="fill:#e0e0e0"></circle><circle cx="423.84" cy="109.05" r="1.58" style="fill:#e0e0e0"></circle><circle cx="434.02" cy="108.08" r="1.58" style="fill:#e0e0e0"></circle><circle cx="393.62" cy="146.81" r="1.58" style="fill:#e0e0e0"></circle><circle cx="339.5" cy="78.23" r="1.58" style="fill:#e0e0e0"></circle><circle cx="268.36" cy="194.79" r="1.58" style="fill:#e0e0e0"></circle><circle cx="199.36" cy="159.25" r="1.58" style="fill:#e0e0e0"></circle><circle cx="437.6" cy="79.81" r="1.58" style="fill:#e0e0e0"></circle><circle cx="269.94" cy="75.71" r="1.58" style="fill:#e0e0e0"></circle><circle cx="211.89" cy="145.23" r="1.58" style="fill:#e0e0e0"></circle><circle cx="178.58" cy="150.26" r="1.58" style="fill:#e0e0e0"></circle><circle cx="444.9" cy="127.56" r="1.58" style="fill:#e0e0e0"></circle><circle cx="87.31" cy="322.79" r="1.58" style="fill:#e0e0e0"></circle><path d="M123.89,138.82a3.16,3.16,0,1,1-3.16-3.17A3.16,3.16,0,0,1,123.89,138.82Z" style="fill:#e0e0e0"></path><path d="M231.47,188.62a3.16,3.16,0,1,1-3.16-3.16A3.15,3.15,0,0,1,231.47,188.62Z" style="fill:#e0e0e0"></path><path d="M333.52,250a3.16,3.16,0,1,1-3.16-3.16A3.15,3.15,0,0,1,333.52,250Z" style="fill:#e0e0e0"></path><circle cx="68.88" cy="304.44" r="3.16" style="fill:#e0e0e0"></circle><circle cx="68.88" cy="249.33" r="3.16" style="fill:#e0e0e0"></circle></g><g id="freepik--Shadows--inject-29"><ellipse id="freepik--path--inject-29" cx="183.74" cy="417.44" rx="48.8" ry="8.09" style="fill:#f5f5f5"></ellipse><ellipse id="freepik--path--inject-29" cx="315.07" cy="402.28" rx="29.04" ry="4.82" style="fill:#f5f5f5"></ellipse><ellipse id="freepik--path--inject-29" cx="361.71" cy="429.88" rx="52.61" ry="7.63" style="fill:#f5f5f5"></ellipse></g><g id="freepik--Space--inject-29"><path d="M281.92,50.47a89.68,89.68,0,0,1,49.78,5.9c26,10.7,46.5,33.54,55,60.27C398.63,154.3,379,187.36,369.78,223c-1.66,6.4-2.91,13-2,19.6,1.44,10.78,9.7,18.27,19,22.83,26.11,12.74,49.62,41.6,27.33,69.35-7.17,8.92-17.23,15.06-27.57,19.95a170.18,170.18,0,0,1-87.08,15.52c-31.21-2.73-59.39-15.77-87.35-29C186.41,329,160.25,322.9,132.83,316,113,311,93,304,77.9,290.27S53.54,254.7,59.61,235.19c8.42-27.05,41.22-42.52,65.59-51.84,28.81-11,43.61-36.24,58.86-58.78C207.28,90.28,241.78,57.19,281.92,50.47Z" style="fill:#263238"></path></g><g id="freepik--Stars--inject-29"><path d="M269.2,94.71a6.29,6.29,0,1,1-6.29-6.29A6.29,6.29,0,0,1,269.2,94.71Z" style="fill:#204D99;opacity:0.30000000000000004"></path><path d="M264.62,94.71A1.71,1.71,0,1,1,262.91,93,1.71,1.71,0,0,1,264.62,94.71Z" style="fill:#204D99"></path><path d="M264.62,94.71A1.71,1.71,0,1,1,262.91,93,1.71,1.71,0,0,1,264.62,94.71Z" style="fill:#fff;opacity:0.7000000000000001"></path><path d="M200.62,142.61a6.29,6.29,0,1,1-6.29-6.29A6.29,6.29,0,0,1,200.62,142.61Z" style="fill:#204D99;opacity:0.30000000000000004"></path><path d="M196,142.6a1.71,1.71,0,1,1-1.71-1.7A1.71,1.71,0,0,1,196,142.6Z" style="fill:#204D99"></path><path d="M196,142.6a1.71,1.71,0,1,1-1.71-1.7A1.71,1.71,0,0,1,196,142.6Z" style="fill:#fff;opacity:0.7000000000000001"></path><path d="M315.38,253.05a6.29,6.29,0,1,1-6.28-6.29A6.28,6.28,0,0,1,315.38,253.05Z" style="fill:#204D99;opacity:0.30000000000000004"></path><path d="M310.81,253.05a1.71,1.71,0,1,1-1.71-1.71A1.72,1.72,0,0,1,310.81,253.05Z" style="fill:#204D99"></path><path d="M310.81,253.05a1.71,1.71,0,1,1-1.71-1.71A1.72,1.72,0,0,1,310.81,253.05Z" style="fill:#fff;opacity:0.7000000000000001"></path><path d="M333.23,338.4a6.29,6.29,0,1,1-6.29-6.29A6.29,6.29,0,0,1,333.23,338.4Z" style="fill:#204D99;opacity:0.30000000000000004"></path><path d="M328.65,338.4a1.71,1.71,0,1,1-1.71-1.71A1.71,1.71,0,0,1,328.65,338.4Z" style="fill:#204D99"></path><path d="M328.65,338.4a1.71,1.71,0,1,1-1.71-1.71A1.71,1.71,0,0,1,328.65,338.4Z" style="fill:#fff;opacity:0.7000000000000001"></path><path d="M282.64,225.6a6.29,6.29,0,1,1-6.29-6.28A6.29,6.29,0,0,1,282.64,225.6Z" style="fill:#204D99;opacity:0.30000000000000004"></path><path d="M278.06,225.6a1.71,1.71,0,1,1-1.71-1.71A1.71,1.71,0,0,1,278.06,225.6Z" style="fill:#204D99"></path><path d="M278.06,225.6a1.71,1.71,0,1,1-1.71-1.71A1.71,1.71,0,0,1,278.06,225.6Z" style="fill:#fff;opacity:0.7000000000000001"></path><path d="M208.88,300.84a6.29,6.29,0,1,1-6.28-6.29A6.28,6.28,0,0,1,208.88,300.84Z" style="fill:#204D99;opacity:0.30000000000000004"></path><path d="M204.3,300.84a1.71,1.71,0,0,1-3.41,0,1.71,1.71,0,1,1,3.41,0Z" style="fill:#204D99"></path><path d="M204.3,300.84a1.71,1.71,0,0,1-3.41,0,1.71,1.71,0,1,1,3.41,0Z" style="fill:#fff;opacity:0.7000000000000001"></path><path d="M178.65,229.19a6.29,6.29,0,1,1-6.29-6.29A6.29,6.29,0,0,1,178.65,229.19Z" style="fill:#204D99;opacity:0.30000000000000004"></path><path d="M174.07,229.19a1.71,1.71,0,1,1-1.71-1.71A1.71,1.71,0,0,1,174.07,229.19Z" style="fill:#204D99"></path><path d="M174.07,229.19a1.71,1.71,0,1,1-1.71-1.71A1.71,1.71,0,0,1,174.07,229.19Z" style="fill:#fff;opacity:0.7000000000000001"></path><path d="M287.85,78.85a3.15,3.15,0,1,1-3.15-3.14A3.15,3.15,0,0,1,287.85,78.85Z" style="fill:#204D99;opacity:0.30000000000000004"></path><path d="M285.56,78.85a.86.86,0,1,1-1.71,0,.85.85,0,0,1,.85-.85A.86.86,0,0,1,285.56,78.85Z" style="fill:#204D99"></path><path d="M285.56,78.85a.86.86,0,1,1-1.71,0,.85.85,0,0,1,.85-.85A.86.86,0,0,1,285.56,78.85Z" style="fill:#fff;opacity:0.7000000000000001"></path><path d="M250.39,193.72a3.15,3.15,0,1,1-3.14-3.15A3.15,3.15,0,0,1,250.39,193.72Z" style="fill:#204D99;opacity:0.30000000000000004"></path><path d="M248.1,193.72a.85.85,0,0,1-.85.85.86.86,0,1,1,.85-.85Z" style="fill:#204D99"></path><path d="M248.1,193.72a.85.85,0,0,1-.85.85.86.86,0,1,1,.85-.85Z" style="fill:#fff;opacity:0.7000000000000001"></path><path d="M74.65,233.9a3.14,3.14,0,1,1-3.14-3.14A3.13,3.13,0,0,1,74.65,233.9Z" style="fill:#204D99;opacity:0.30000000000000004"></path><path d="M72.36,233.9a.85.85,0,1,1-.85-.85A.85.85,0,0,1,72.36,233.9Z" style="fill:#204D99"></path><path d="M72.36,233.9a.85.85,0,1,1-.85-.85A.85.85,0,0,1,72.36,233.9Z" style="fill:#fff;opacity:0.7000000000000001"></path><path d="M360.53,98.33a3.14,3.14,0,1,1-3.14-3.14A3.14,3.14,0,0,1,360.53,98.33Z" style="fill:#204D99;opacity:0.30000000000000004"></path><path d="M358.24,98.33a.85.85,0,1,1-.85-.85A.85.85,0,0,1,358.24,98.33Z" style="fill:#204D99"></path><path d="M358.24,98.33a.85.85,0,1,1-.85-.85A.85.85,0,0,1,358.24,98.33Z" style="fill:#fff;opacity:0.7000000000000001"></path><path d="M354.84,184.66a3.15,3.15,0,1,1-3.14-3.14A3.15,3.15,0,0,1,354.84,184.66Z" style="fill:#204D99;opacity:0.30000000000000004"></path><path d="M352.55,184.66a.86.86,0,1,1-.85-.85A.85.85,0,0,1,352.55,184.66Z" style="fill:#204D99"></path><path d="M352.55,184.66a.86.86,0,1,1-.85-.85A.85.85,0,0,1,352.55,184.66Z" style="fill:#fff;opacity:0.7000000000000001"></path><path d="M368.2,274.64a3.14,3.14,0,1,1-3.14-3.15A3.14,3.14,0,0,1,368.2,274.64Z" style="fill:#204D99;opacity:0.30000000000000004"></path><path d="M365.91,274.64a.85.85,0,1,1-.85-.86A.85.85,0,0,1,365.91,274.64Z" style="fill:#204D99"></path><path d="M365.91,274.64a.85.85,0,1,1-.85-.86A.85.85,0,0,1,365.91,274.64Z" style="fill:#fff;opacity:0.7000000000000001"></path><path d="M322.68,227.82a3.15,3.15,0,1,1-3.15-3.15A3.15,3.15,0,0,1,322.68,227.82Z" style="fill:#204D99;opacity:0.30000000000000004"></path><path d="M320.39,227.82a.86.86,0,1,1-.85-.86A.85.85,0,0,1,320.39,227.82Z" style="fill:#204D99"></path><path d="M320.39,227.82a.86.86,0,1,1-.85-.86A.85.85,0,0,1,320.39,227.82Z" style="fill:#fff;opacity:0.7000000000000001"></path><path d="M290.69,285.12a3.14,3.14,0,1,1-3.14-3.14A3.14,3.14,0,0,1,290.69,285.12Z" style="fill:#204D99;opacity:0.30000000000000004"></path><path d="M288.4,285.12a.85.85,0,1,1-.85-.85A.85.85,0,0,1,288.4,285.12Z" style="fill:#204D99"></path><path d="M288.4,285.12a.85.85,0,1,1-.85-.85A.85.85,0,0,1,288.4,285.12Z" style="fill:#fff;opacity:0.7000000000000001"></path><path d="M220.24,284.13A3.15,3.15,0,1,1,217.1,281,3.14,3.14,0,0,1,220.24,284.13Z" style="fill:#204D99;opacity:0.30000000000000004"></path><path d="M218,284.13a.86.86,0,1,1-.85-.85A.85.85,0,0,1,218,284.13Z" style="fill:#204D99"></path><path d="M218,284.13a.86.86,0,1,1-.85-.85A.85.85,0,0,1,218,284.13Z" style="fill:#fff;opacity:0.7000000000000001"></path><path d="M399.73,326.41a3.15,3.15,0,1,1-3.14-3.14A3.15,3.15,0,0,1,399.73,326.41Z" style="fill:#204D99;opacity:0.30000000000000004"></path><path d="M397.44,326.41a.86.86,0,1,1-.85-.85A.85.85,0,0,1,397.44,326.41Z" style="fill:#204D99"></path><path d="M397.44,326.41a.86.86,0,1,1-.85-.85A.85.85,0,0,1,397.44,326.41Z" style="fill:#fff;opacity:0.7000000000000001"></path><path d="M194.48,158a3.15,3.15,0,1,1-3.15-3.14A3.14,3.14,0,0,1,194.48,158Z" style="fill:#204D99;opacity:0.30000000000000004"></path><path d="M192.19,158a.86.86,0,0,1-.86.85.85.85,0,1,1,0-1.7A.86.86,0,0,1,192.19,158Z" style="fill:#204D99"></path><path d="M192.19,158a.86.86,0,0,1-.86.85.85.85,0,1,1,0-1.7A.86.86,0,0,1,192.19,158Z" style="fill:#fff;opacity:0.7000000000000001"></path><path d="M273.21,74.79a1.57,1.57,0,1,1-1.57-1.57A1.57,1.57,0,0,1,273.21,74.79Z" style="fill:#204D99;opacity:0.30000000000000004"></path><path d="M272.07,74.79a.43.43,0,0,1-.43.43.43.43,0,1,1,0-.85A.42.42,0,0,1,272.07,74.79Z" style="fill:#204D99"></path><path d="M272.07,74.79a.43.43,0,0,1-.43.43.43.43,0,1,1,0-.85A.42.42,0,0,1,272.07,74.79Z" style="fill:#fff;opacity:0.7000000000000001"></path><path d="M262.78,114.74a1.58,1.58,0,1,1-1.57-1.57A1.57,1.57,0,0,1,262.78,114.74Z" style="fill:#204D99;opacity:0.30000000000000004"></path><path d="M261.63,114.74a.43.43,0,1,1-.42-.42A.42.42,0,0,1,261.63,114.74Z" style="fill:#204D99"></path><path d="M261.63,114.74a.43.43,0,1,1-.42-.42A.42.42,0,0,1,261.63,114.74Z" style="fill:#fff;opacity:0.7000000000000001"></path><path d="M261.92,172.84a1.57,1.57,0,1,1-1.57-1.57A1.57,1.57,0,0,1,261.92,172.84Z" style="fill:#204D99;opacity:0.30000000000000004"></path><path d="M260.78,172.84a.43.43,0,1,1-.85,0,.43.43,0,0,1,.85,0Z" style="fill:#204D99"></path><path d="M260.78,172.84a.43.43,0,1,1-.85,0,.43.43,0,0,1,.85,0Z" style="fill:#fff;opacity:0.7000000000000001"></path><path d="M334.8,210a1.57,1.57,0,1,1-1.57-1.57A1.57,1.57,0,0,1,334.8,210Z" style="fill:#204D99;opacity:0.30000000000000004"></path><path d="M333.65,210a.43.43,0,1,1-.42-.43A.42.42,0,0,1,333.65,210Z" style="fill:#204D99"></path><path d="M333.65,210a.43.43,0,1,1-.42-.43A.42.42,0,0,1,333.65,210Z" style="fill:#fff;opacity:0.7000000000000001"></path><path d="M379,275.49a1.58,1.58,0,1,1-1.57-1.57A1.57,1.57,0,0,1,379,275.49Z" style="fill:#204D99;opacity:0.30000000000000004"></path><path d="M377.89,275.49a.43.43,0,1,1-.85,0,.43.43,0,1,1,.85,0Z" style="fill:#204D99"></path><path d="M377.89,275.49a.43.43,0,1,1-.85,0,.43.43,0,1,1,.85,0Z" style="fill:#fff;opacity:0.7000000000000001"></path><path d="M401.89,297.93a1.57,1.57,0,1,1-1.57-1.57A1.57,1.57,0,0,1,401.89,297.93Z" style="fill:#204D99;opacity:0.30000000000000004"></path><path d="M400.75,297.93a.43.43,0,0,1-.43.43.43.43,0,1,1,0-.85A.42.42,0,0,1,400.75,297.93Z" style="fill:#204D99"></path><path d="M400.75,297.93a.43.43,0,0,1-.43.43.43.43,0,1,1,0-.85A.42.42,0,0,1,400.75,297.93Z" style="fill:#fff;opacity:0.7000000000000001"></path><path d="M353.27,296.36a1.57,1.57,0,1,1-1.57-1.57A1.57,1.57,0,0,1,353.27,296.36Z" style="fill:#204D99;opacity:0.30000000000000004"></path><path d="M352.12,296.36a.43.43,0,1,1-.85,0,.43.43,0,1,1,.85,0Z" style="fill:#204D99"></path><path d="M352.12,296.36a.43.43,0,1,1-.85,0,.43.43,0,1,1,.85,0Z" style="fill:#fff;opacity:0.7000000000000001"></path><path d="M365.78,325.56a1.57,1.57,0,1,1-1.57-1.57A1.57,1.57,0,0,1,365.78,325.56Z" style="fill:#204D99;opacity:0.30000000000000004"></path><path d="M364.64,325.56a.43.43,0,0,1-.43.43.43.43,0,0,1,0-.86A.43.43,0,0,1,364.64,325.56Z" style="fill:#204D99"></path><path d="M364.64,325.56a.43.43,0,0,1-.43.43.43.43,0,0,1,0-.86A.43.43,0,0,1,364.64,325.56Z" style="fill:#fff;opacity:0.7000000000000001"></path><path d="M238.93,134.5a1.57,1.57,0,1,1-1.57-1.57A1.57,1.57,0,0,1,238.93,134.5Z" style="fill:#204D99;opacity:0.30000000000000004"></path><path d="M237.79,134.5a.43.43,0,1,1-.85,0,.43.43,0,0,1,.85,0Z" style="fill:#204D99"></path><path d="M237.79,134.5a.43.43,0,1,1-.85,0,.43.43,0,0,1,.85,0Z" style="fill:#fff;opacity:0.7000000000000001"></path><path d="M245,169.72a1.57,1.57,0,1,1-1.57-1.57A1.57,1.57,0,0,1,245,169.72Z" style="fill:#204D99;opacity:0.30000000000000004"></path><path d="M243.87,169.72a.43.43,0,0,1-.43.43.43.43,0,0,1-.43-.43.44.44,0,0,1,.43-.43A.43.43,0,0,1,243.87,169.72Z" style="fill:#204D99"></path><path d="M243.87,169.72a.43.43,0,0,1-.43.43.43.43,0,0,1-.43-.43.44.44,0,0,1,.43-.43A.43.43,0,0,1,243.87,169.72Z" style="fill:#fff;opacity:0.7000000000000001"></path><path d="M267.57,181.94a1.57,1.57,0,1,1-1.57-1.57A1.58,1.58,0,0,1,267.57,181.94Z" style="fill:#204D99;opacity:0.30000000000000004"></path><path d="M266.42,181.94a.43.43,0,1,1-.42-.42A.42.42,0,0,1,266.42,181.94Z" style="fill:#204D99"></path><path d="M266.42,181.94a.43.43,0,1,1-.42-.42A.42.42,0,0,1,266.42,181.94Z" style="fill:#fff;opacity:0.7000000000000001"></path><path d="M315.58,122.6A1.57,1.57,0,1,1,314,121,1.57,1.57,0,0,1,315.58,122.6Z" style="fill:#204D99;opacity:0.30000000000000004"></path><path d="M314.44,122.6a.43.43,0,1,1-.43-.43A.42.42,0,0,1,314.44,122.6Z" style="fill:#204D99"></path><path d="M314.44,122.6a.43.43,0,1,1-.43-.43A.42.42,0,0,1,314.44,122.6Z" style="fill:#fff;opacity:0.7000000000000001"></path><path d="M322.23,157.17a1.57,1.57,0,1,1-1.57-1.57A1.57,1.57,0,0,1,322.23,157.17Z" style="fill:#204D99;opacity:0.30000000000000004"></path><path d="M321.08,157.17a.43.43,0,0,1-.85,0,.43.43,0,1,1,.85,0Z" style="fill:#204D99"></path><path d="M321.08,157.17a.43.43,0,0,1-.85,0,.43.43,0,1,1,.85,0Z" style="fill:#fff;opacity:0.7000000000000001"></path><path d="M283.92,200a1.57,1.57,0,1,1-1.57-1.57A1.57,1.57,0,0,1,283.92,200Z" style="fill:#204D99;opacity:0.30000000000000004"></path><path d="M282.78,200a.43.43,0,1,1-.85,0,.43.43,0,0,1,.85,0Z" style="fill:#204D99"></path><path d="M282.78,200a.43.43,0,1,1-.85,0,.43.43,0,0,1,.85,0Z" style="fill:#fff;opacity:0.7000000000000001"></path><path d="M275.06,338.4a1.57,1.57,0,1,1-1.57-1.57A1.57,1.57,0,0,1,275.06,338.4Z" style="fill:#204D99;opacity:0.30000000000000004"></path><path d="M273.92,338.4a.43.43,0,0,1-.43.43.43.43,0,0,1,0-.86A.43.43,0,0,1,273.92,338.4Z" style="fill:#204D99"></path><path d="M273.92,338.4a.43.43,0,0,1-.43.43.43.43,0,0,1,0-.86A.43.43,0,0,1,273.92,338.4Z" style="fill:#fff;opacity:0.7000000000000001"></path><path d="M276.63,270.9a1.57,1.57,0,1,1-1.57-1.57A1.57,1.57,0,0,1,276.63,270.9Z" style="fill:#204D99;opacity:0.30000000000000004"></path><path d="M275.49,270.9a.43.43,0,1,1-.43-.43A.42.42,0,0,1,275.49,270.9Z" style="fill:#204D99"></path><path d="M275.49,270.9a.43.43,0,1,1-.43-.43A.42.42,0,0,1,275.49,270.9Z" style="fill:#fff;opacity:0.7000000000000001"></path><path d="M297.18,324a1.57,1.57,0,1,1-1.57-1.57A1.57,1.57,0,0,1,297.18,324Z" style="fill:#204D99;opacity:0.30000000000000004"></path><path d="M296,324a.43.43,0,0,1-.85,0,.43.43,0,1,1,.85,0Z" style="fill:#204D99"></path><path d="M296,324a.43.43,0,0,1-.85,0,.43.43,0,1,1,.85,0Z" style="fill:#fff;opacity:0.7000000000000001"></path><path d="M268,332.11a1.57,1.57,0,1,1-1.57-1.57A1.57,1.57,0,0,1,268,332.11Z" style="fill:#204D99;opacity:0.30000000000000004"></path><path d="M266.85,332.11a.43.43,0,1,1-.85,0,.43.43,0,0,1,.85,0Z" style="fill:#204D99"></path><path d="M266.85,332.11a.43.43,0,1,1-.85,0,.43.43,0,0,1,.85,0Z" style="fill:#fff;opacity:0.7000000000000001"></path><path d="M221.81,246.76a1.57,1.57,0,1,1-1.57-1.57A1.57,1.57,0,0,1,221.81,246.76Z" style="fill:#204D99;opacity:0.30000000000000004"></path><path d="M220.67,246.76a.43.43,0,0,1-.43.43.43.43,0,1,1,0-.85A.43.43,0,0,1,220.67,246.76Z" style="fill:#204D99"></path><path d="M220.67,246.76a.43.43,0,0,1-.43.43.43.43,0,1,1,0-.85A.43.43,0,0,1,220.67,246.76Z" style="fill:#fff;opacity:0.7000000000000001"></path><path d="M206.64,250a1.58,1.58,0,1,1-1.58-1.57A1.57,1.57,0,0,1,206.64,250Z" style="fill:#204D99;opacity:0.30000000000000004"></path><path d="M205.49,250a.43.43,0,1,1-.43-.43A.43.43,0,0,1,205.49,250Z" style="fill:#204D99"></path><path d="M205.49,250a.43.43,0,1,1-.43-.43A.43.43,0,0,1,205.49,250Z" style="fill:#fff;opacity:0.7000000000000001"></path><path d="M155.71,254.76a1.57,1.57,0,1,1-1.57-1.58A1.57,1.57,0,0,1,155.71,254.76Z" style="fill:#204D99;opacity:0.30000000000000004"></path><path d="M154.57,254.76a.43.43,0,1,1-.43-.43A.42.42,0,0,1,154.57,254.76Z" style="fill:#204D99"></path><path d="M154.57,254.76a.43.43,0,1,1-.43-.43A.42.42,0,0,1,154.57,254.76Z" style="fill:#fff;opacity:0.7000000000000001"></path><path d="M184.89,265.23a1.58,1.58,0,1,1-1.58-1.57A1.57,1.57,0,0,1,184.89,265.23Z" style="fill:#204D99;opacity:0.30000000000000004"></path><path d="M183.74,265.23a.43.43,0,1,1-.43-.43A.43.43,0,0,1,183.74,265.23Z" style="fill:#204D99"></path><path d="M183.74,265.23a.43.43,0,1,1-.43-.43A.43.43,0,0,1,183.74,265.23Z" style="fill:#fff;opacity:0.7000000000000001"></path><path d="M161.46,273.78a1.57,1.57,0,1,1-1.57-1.57A1.57,1.57,0,0,1,161.46,273.78Z" style="fill:#204D99;opacity:0.30000000000000004"></path><path d="M160.32,273.78a.43.43,0,0,1-.43.43.43.43,0,1,1,0-.85A.43.43,0,0,1,160.32,273.78Z" style="fill:#204D99"></path><path d="M160.32,273.78a.43.43,0,0,1-.43.43.43.43,0,1,1,0-.85A.43.43,0,0,1,160.32,273.78Z" style="fill:#fff;opacity:0.7000000000000001"></path><path d="M342.54,300.84a1.58,1.58,0,1,1-1.58-1.57A1.57,1.57,0,0,1,342.54,300.84Z" style="fill:#204D99;opacity:0.30000000000000004"></path><path d="M341.39,300.84a.43.43,0,1,1-.43-.43A.42.42,0,0,1,341.39,300.84Z" style="fill:#204D99"></path><path d="M341.39,300.84a.43.43,0,1,1-.43-.43A.42.42,0,0,1,341.39,300.84Z" style="fill:#fff;opacity:0.7000000000000001"></path><path d="M294.85,127.14a1.57,1.57,0,1,1-1.57-1.57A1.57,1.57,0,0,1,294.85,127.14Z" style="fill:#204D99;opacity:0.30000000000000004"></path><path d="M293.71,127.14a.43.43,0,1,1-.43-.43A.42.42,0,0,1,293.71,127.14Z" style="fill:#204D99"></path><path d="M293.71,127.14a.43.43,0,1,1-.43-.43A.42.42,0,0,1,293.71,127.14Z" style="fill:#fff;opacity:0.7000000000000001"></path><path d="M374.08,116.35a1.57,1.57,0,1,1-1.57-1.57A1.57,1.57,0,0,1,374.08,116.35Z" style="fill:#204D99;opacity:0.30000000000000004"></path><path d="M372.94,116.35a.43.43,0,1,1-.43-.43A.42.42,0,0,1,372.94,116.35Z" style="fill:#204D99"></path><path d="M372.94,116.35a.43.43,0,1,1-.43-.43A.42.42,0,0,1,372.94,116.35Z" style="fill:#fff;opacity:0.7000000000000001"></path><path d="M219.09,176.74a1.57,1.57,0,1,1-1.57-1.57A1.57,1.57,0,0,1,219.09,176.74Z" style="fill:#204D99;opacity:0.30000000000000004"></path><path d="M218,176.74a.43.43,0,1,1-.43-.43A.42.42,0,0,1,218,176.74Z" style="fill:#204D99"></path><path d="M218,176.74a.43.43,0,1,1-.43-.43A.42.42,0,0,1,218,176.74Z" style="fill:#fff;opacity:0.7000000000000001"></path><path d="M215,186.24a1.58,1.58,0,1,1-1.57-1.58A1.58,1.58,0,0,1,215,186.24Z" style="fill:#204D99;opacity:0.30000000000000004"></path><path d="M213.85,186.24a.43.43,0,0,1-.85,0,.43.43,0,1,1,.85,0Z" style="fill:#204D99"></path><path d="M213.85,186.24a.43.43,0,0,1-.85,0,.43.43,0,1,1,.85,0Z" style="fill:#fff;opacity:0.7000000000000001"></path><path d="M89.83,222.26a1.57,1.57,0,1,1-1.57-1.57A1.57,1.57,0,0,1,89.83,222.26Z" style="fill:#204D99;opacity:0.30000000000000004"></path><path d="M88.69,222.26a.43.43,0,1,1-.43-.43A.42.42,0,0,1,88.69,222.26Z" style="fill:#204D99"></path><path d="M88.69,222.26a.43.43,0,1,1-.43-.43A.42.42,0,0,1,88.69,222.26Z" style="fill:#fff;opacity:0.7000000000000001"></path><path d="M91.41,230.76a1.58,1.58,0,1,1-1.58-1.57A1.57,1.57,0,0,1,91.41,230.76Z" style="fill:#204D99;opacity:0.30000000000000004"></path><path d="M90.26,230.76a.43.43,0,1,1-.43-.43A.42.42,0,0,1,90.26,230.76Z" style="fill:#204D99"></path><path d="M90.26,230.76a.43.43,0,1,1-.43-.43A.42.42,0,0,1,90.26,230.76Z" style="fill:#fff;opacity:0.7000000000000001"></path><path d="M70.45,263.66a1.58,1.58,0,1,1-1.57-1.57A1.57,1.57,0,0,1,70.45,263.66Z" style="fill:#204D99;opacity:0.30000000000000004"></path><path d="M69.3,263.66a.43.43,0,1,1-.85,0,.43.43,0,1,1,.85,0Z" style="fill:#204D99"></path><path d="M69.3,263.66a.43.43,0,1,1-.85,0,.43.43,0,1,1,.85,0Z" style="fill:#fff;opacity:0.7000000000000001"></path><path d="M81,272.47a1.57,1.57,0,1,1-1.57-1.57A1.57,1.57,0,0,1,81,272.47Z" style="fill:#204D99;opacity:0.30000000000000004"></path><path d="M79.83,272.47a.43.43,0,0,1-.85,0,.43.43,0,1,1,.85,0Z" style="fill:#204D99"></path><path d="M79.83,272.47a.43.43,0,0,1-.85,0,.43.43,0,1,1,.85,0Z" style="fill:#fff;opacity:0.7000000000000001"></path><path d="M171.38,162.41a1.58,1.58,0,1,1-1.58-1.57A1.57,1.57,0,0,1,171.38,162.41Z" style="fill:#204D99;opacity:0.30000000000000004"></path><path d="M170.23,162.41a.43.43,0,1,1-.85,0,.43.43,0,0,1,.85,0Z" style="fill:#204D99"></path><path d="M170.23,162.41a.43.43,0,1,1-.85,0,.43.43,0,0,1,.85,0Z" style="fill:#fff;opacity:0.7000000000000001"></path><path d="M159.89,176.74a1.57,1.57,0,1,1-1.57-1.57A1.57,1.57,0,0,1,159.89,176.74Z" style="fill:#204D99;opacity:0.30000000000000004"></path><path d="M158.74,176.74a.43.43,0,0,1-.85,0,.43.43,0,1,1,.85,0Z" style="fill:#204D99"></path><path d="M158.74,176.74a.43.43,0,0,1-.85,0,.43.43,0,1,1,.85,0Z" style="fill:#fff;opacity:0.7000000000000001"></path><path d="M209.78,180a1.57,1.57,0,1,1-1.57-1.57A1.58,1.58,0,0,1,209.78,180Z" style="fill:#204D99;opacity:0.30000000000000004"></path><path d="M208.63,180a.43.43,0,1,1-.42-.42A.42.42,0,0,1,208.63,180Z" style="fill:#204D99"></path><path d="M208.63,180a.43.43,0,1,1-.42-.42A.42.42,0,0,1,208.63,180Z" style="fill:#fff;opacity:0.7000000000000001"></path><path d="M208.21,127.14a1.58,1.58,0,1,1-1.57-1.57A1.57,1.57,0,0,1,208.21,127.14Z" style="fill:#204D99;opacity:0.30000000000000004"></path><path d="M207.06,127.14a.43.43,0,1,1-.42-.43A.42.42,0,0,1,207.06,127.14Z" style="fill:#204D99"></path><path d="M207.06,127.14a.43.43,0,1,1-.42-.43A.42.42,0,0,1,207.06,127.14Z" style="fill:#fff;opacity:0.7000000000000001"></path></g><g id="freepik--Circle--inject-29"><path d="M194.66,322.5c-1.35.09-2.69.16-4,.22l0-.5c3.8-.16,7.87-.47,11.89-.91l.06.5C199.94,322.1,197.27,322.33,194.66,322.5Zm-15.94.29c-4.11-.14-8.12-.45-11.93-.92l.06-.5c3.8.47,7.8.78,11.88.92Zm35.72-2.61-.08-.5c3.83-.64,7.77-1.4,11.71-2.28l.11.49C222.23,318.77,218.29,319.53,214.44,320.18ZM237.78,315l-.13-.48c3.78-1,7.63-2.18,11.43-3.41l.15.48C245.43,312.84,241.57,314,237.78,315ZM155,319.75a82.46,82.46,0,0,1-11.41-3.61l.18-.46a82.31,82.31,0,0,0,11.34,3.58Zm105.51-12.06-.18-.47c3.7-1.37,7.44-2.85,11.1-4.38l.19.46C268,304.84,264.23,306.32,260.53,307.69Zm-127.57,3A47.14,47.14,0,0,1,123.8,303l.37-.34a46.43,46.43,0,0,0,9.06,7.61Zm149.6-12.23-.21-.45c3.6-1.68,7.2-3.46,10.7-5.28l.23.44C289.77,295,286.17,296.76,282.56,298.44Zm21.21-11-.24-.44c3.46-2,6.9-4.06,10.21-6.16l.27.43C310.69,283.36,307.24,285.44,303.77,287.43Zm-186.65,5.63,0-.08a39.91,39.91,0,0,1-3.36-11.4l.49-.07a39.59,39.59,0,0,0,3.33,11.26l0,.07ZM324,274.64l-.29-.41c3.28-2.3,6.51-4.67,9.61-7.07l.31.39C330.49,270,327.25,272.34,324,274.64ZM342.86,260l-.32-.37c3-2.63,6-5.34,8.81-8l.35.36C348.9,254.65,345.92,257.36,342.86,260Zm-228.72,9.68-.5-.06a62.44,62.44,0,0,1,2.58-11.68l.48.15A60.71,60.71,0,0,0,114.14,269.67ZM360,243.36l-.37-.34c2.73-3,5.32-6.08,7.68-9.12l.4.31C365.35,237.26,362.76,240.34,360,243.36Zm-238.84,3.71-.45-.22a107.26,107.26,0,0,1,5.9-10.41l.42.27A106.21,106.21,0,0,0,121.18,247.07Zm253.47-22.62-.43-.27a105.19,105.19,0,0,0,5.88-10.36l.45.23A108.33,108.33,0,0,1,374.65,224.45ZM133.94,227l-.4-.31c2.37-3.05,5-6.13,7.7-9.15l.37.33C138.88,220.88,136.3,224,133.94,227Zm251.13-24-.48-.15a61.58,61.58,0,0,0,2.58-11.59l.5.06A62.53,62.53,0,0,1,385.07,203ZM149.91,209.3l-.35-.36c2.8-2.71,5.77-5.42,8.83-8.06l.33.38C155.66,203.89,152.7,206.6,149.91,209.3Zm237.2-29.9a39.54,39.54,0,0,0-3.33-11.35l-.07-.14.45-.21.07.14a40.11,40.11,0,0,1,3.38,11.49ZM168,193.72l-.31-.4c3.1-2.4,6.34-4.78,9.63-7.08l.29.41C174.28,188.94,171.05,191.32,168,193.72ZM187.5,180l-.26-.42c3.33-2.11,6.77-4.18,10.23-6.17l.25.43C194.27,175.86,190.83,177.93,187.5,180Zm189.6-21.91a46.9,46.9,0,0,0-9.09-7.59l.28-.42a47.18,47.18,0,0,1,9.18,7.68Zm-168.91,10-.23-.44c3.51-1.83,7.11-3.61,10.72-5.3l.21.46C215.29,164.55,211.69,166.33,208.19,168.15ZM229.79,158l-.19-.46c3.68-1.55,7.42-3,11.11-4.4l.18.47C237.2,155,233.47,156.48,229.79,158Zm127.66-12.9a80.69,80.69,0,0,0-11.35-3.57l.12-.49a82.46,82.46,0,0,1,11.41,3.59Zm-105.29,4.6-.15-.48c3.81-1.23,7.66-2.38,11.45-3.42l.13.49C259.81,147.34,256,148.49,252.16,149.72Zm23-6.28-.11-.49c3.93-.87,7.88-1.64,11.74-2.29l.08.5C283,141.8,279.09,142.57,275.17,143.44Zm59.21-4c-3.8-.47-7.79-.78-11.88-.91l0-.5c4.1.13,8.11.44,11.92.91Zm-35.69.07-.05-.5c4-.43,8-.74,11.92-.91l0,.5C306.68,138.78,302.7,139.09,298.69,139.52Z" style="fill:#204D99"></path><g style="opacity:0.4"><path d="M194.66,322.5c-1.35.09-2.69.16-4,.22l0-.5c3.8-.16,7.87-.47,11.89-.91l.06.5C199.94,322.1,197.27,322.33,194.66,322.5Zm-15.94.29c-4.11-.14-8.12-.45-11.93-.92l.06-.5c3.8.47,7.8.78,11.88.92Zm35.72-2.61-.08-.5c3.83-.64,7.77-1.4,11.71-2.28l.11.49C222.23,318.77,218.29,319.53,214.44,320.18ZM237.78,315l-.13-.48c3.78-1,7.63-2.18,11.43-3.41l.15.48C245.43,312.84,241.57,314,237.78,315ZM155,319.75a82.46,82.46,0,0,1-11.41-3.61l.18-.46a82.31,82.31,0,0,0,11.34,3.58Zm105.51-12.06-.18-.47c3.7-1.37,7.44-2.85,11.1-4.38l.19.46C268,304.84,264.23,306.32,260.53,307.69Zm-127.57,3A47.14,47.14,0,0,1,123.8,303l.37-.34a46.43,46.43,0,0,0,9.06,7.61Zm149.6-12.23-.21-.45c3.6-1.68,7.2-3.46,10.7-5.28l.23.44C289.77,295,286.17,296.76,282.56,298.44Zm21.21-11-.24-.44c3.46-2,6.9-4.06,10.21-6.16l.27.43C310.69,283.36,307.24,285.44,303.77,287.43Zm-186.65,5.63,0-.08a39.91,39.91,0,0,1-3.36-11.4l.49-.07a39.59,39.59,0,0,0,3.33,11.26l0,.07ZM324,274.64l-.29-.41c3.28-2.3,6.51-4.67,9.61-7.07l.31.39C330.49,270,327.25,272.34,324,274.64ZM342.86,260l-.32-.37c3-2.63,6-5.34,8.81-8l.35.36C348.9,254.65,345.92,257.36,342.86,260Zm-228.72,9.68-.5-.06a62.44,62.44,0,0,1,2.58-11.68l.48.15A60.71,60.71,0,0,0,114.14,269.67ZM360,243.36l-.37-.34c2.73-3,5.32-6.08,7.68-9.12l.4.31C365.35,237.26,362.76,240.34,360,243.36Zm-238.84,3.71-.45-.22a107.26,107.26,0,0,1,5.9-10.41l.42.27A106.21,106.21,0,0,0,121.18,247.07Zm253.47-22.62-.43-.27a105.19,105.19,0,0,0,5.88-10.36l.45.23A108.33,108.33,0,0,1,374.65,224.45ZM133.94,227l-.4-.31c2.37-3.05,5-6.13,7.7-9.15l.37.33C138.88,220.88,136.3,224,133.94,227Zm251.13-24-.48-.15a61.58,61.58,0,0,0,2.58-11.59l.5.06A62.53,62.53,0,0,1,385.07,203ZM149.91,209.3l-.35-.36c2.8-2.71,5.77-5.42,8.83-8.06l.33.38C155.66,203.89,152.7,206.6,149.91,209.3Zm237.2-29.9a39.54,39.54,0,0,0-3.33-11.35l-.07-.14.45-.21.07.14a40.11,40.11,0,0,1,3.38,11.49ZM168,193.72l-.31-.4c3.1-2.4,6.34-4.78,9.63-7.08l.29.41C174.28,188.94,171.05,191.32,168,193.72ZM187.5,180l-.26-.42c3.33-2.11,6.77-4.18,10.23-6.17l.25.43C194.27,175.86,190.83,177.93,187.5,180Zm189.6-21.91a46.9,46.9,0,0,0-9.09-7.59l.28-.42a47.18,47.18,0,0,1,9.18,7.68Zm-168.91,10-.23-.44c3.51-1.83,7.11-3.61,10.72-5.3l.21.46C215.29,164.55,211.69,166.33,208.19,168.15ZM229.79,158l-.19-.46c3.68-1.55,7.42-3,11.11-4.4l.18.47C237.2,155,233.47,156.48,229.79,158Zm127.66-12.9a80.69,80.69,0,0,0-11.35-3.57l.12-.49a82.46,82.46,0,0,1,11.41,3.59Zm-105.29,4.6-.15-.48c3.81-1.23,7.66-2.38,11.45-3.42l.13.49C259.81,147.34,256,148.49,252.16,149.72Zm23-6.28-.11-.49c3.93-.87,7.88-1.64,11.74-2.29l.08.5C283,141.8,279.09,142.57,275.17,143.44Zm59.21-4c-3.8-.47-7.79-.78-11.88-.91l0-.5c4.1.13,8.11.44,11.92.91Zm-35.69.07-.05-.5c4-.43,8-.74,11.92-.91l0,.5C306.68,138.78,302.7,139.09,298.69,139.52Z" style="fill:#fff"></path></g></g><g id="freepik--Comet--inject-29"><path d="M160.85,122.92s8.25-16.38,30.73-26.64,34.73-5.91,34.73-5.91l-12.75,4.44,39.49,1.63-36.51,4.65,12.65,3a110.3,110.3,0,0,0-32.45,5.73c-16.07,5.7-32,23.38-32,23.38Z" style="fill:#204D99"></path><path d="M160.85,122.92s8.25-16.38,30.73-26.64,34.73-5.91,34.73-5.91l-12.75,4.44,39.49,1.63-36.51,4.65,12.65,3a110.3,110.3,0,0,0-32.45,5.73c-16.07,5.7-32,23.38-32,23.38Z" style="fill:#fff;opacity:0.5"></path><path d="M210.58,98a61.2,61.2,0,0,0-24.47,12.51,36.72,36.72,0,0,1,15.74-5c-15,4.42-27.46,13.58-37.07,27.8l-3.93-10.32c12.67-13.07,18.41-19.59,38.77-26.53-4.34,2.32-7.77,4.88-9.8,7.79C195.84,101,202.89,99.05,210.58,98Z" style="fill:#fff;opacity:0.5"></path><polygon points="159.96 131.06 159.47 142.65 164.66 132.98 174.75 135.53 167.69 128.12 172.74 121.28 164.48 124.42 159.2 117.08 159.41 126.09 152.15 129.03 159.96 131.06" style="fill:#204D99"></polygon></g><g id="freepik--Earth--inject-29"><circle cx="174.79" cy="275.06" r="86.44" transform="translate(-143.3 204.16) rotate(-45)" style="fill:#204D99"></circle><circle cx="174.79" cy="275.06" r="86.44" transform="translate(-143.3 204.16) rotate(-45)" style="fill:#fff;opacity:0.4"></circle><path d="M129.53,348.72a83.32,83.32,0,0,0,31.05,11.52A85,85,0,0,0,199.16,358a21.86,21.86,0,0,0-4.08-.64c-.8-.06-1-1-1.81-1.07-1.7,0-4.08.4-5.77.47-1.31.06-2.63.67-3.78.75-3.05.22-5.24.49-5.24.49l-1.72-.65-1-1.59-2-.76-2.21.38-1.88-.71-1.13-1.26-2.39-1.11-1.84.72-1.76-.18-2.45,1-.6,1.11-2.48,1-1.19-.72-2.68-.51-5.49-4.41-2.39.52-4.77-2.08h-1.1l-1.87-.82h-5l-1.38.82Z" style="fill:#fff;opacity:0.4"></path><path d="M106.83,328.48l4.59,3.42,1.53,2.22,2.1,1.94,2.5-.29,1.33,1.87,1.84.76,3-3.38-1.53-2.36-.6-4.14-1.11-1.19-.53-2.26L118,323l-2-.48-1-1.11-2.56-.25-.5-3,.66-1.39-.38-.35.3-.63.8-.5,1-2-1.8-7.4.52-2.09-.72-1.06.93-3.67,1.33-1.36.51-2,2.16-1.54.79-1.95,3.36-.94.57-1.26,3.08-.86,1.93.56,2.72-.76,3.86-5.14.76-2.85-1.45-1.67,1.75-2.91.9.11.46-1.74h6.12l1.3-1.13.57-1.55,1-.88,1.52-.27,1.58-1.38,0-5-1-1.75-.05-6.63,1-2,0-3.74,2.3-3.46.65.43,2.46-3.7-1.86-2.78.25-5-3.51-1-.84-.79-.91.54-1.5-1.5-.28-1.6-.71-.66-.51-3-2.57.07-2.32-2.2-3.55.71.19,1.17-4.75,1.75-2.12-1.58-2.6.52-1-1.44-2.25.5-.6,1.72-2.55.51-2.6-2-1.4,2.78-2.87.58-.7-.89-1.69.38-1,1.19-2,.41,2-2.92-.71-1.57,2.4,0,.5-2.25-1.5-2.5,1.5-2,1.5-1,1.63,1.07,3.87-2.57,0-2.27,1.56-2,3-.52-.47-2.64,4.22-1.62,1.5,1.62h1.73l.12-2.65,1.25-.47.47-1.78-3.19-.28,2.63-1.41-.91-1.14.1-2.12c-12.27,8.14-22.31,17.33-28.62,28.3a87.76,87.76,0,0,0-13,50.78C89.52,298,95.84,314.07,106.83,328.48Z" style="fill:#fff;opacity:0.4"></path><path d="M214.66,343.28,209,339.34l-.45-1.66-1.18-.28-.57-6.25-1.93-1.67-1.5-3.59v-3.5l-2.06-1.5,2.06-8.08,1.79-3.08,2-.23.93-1.62-.47-2.38,2.89-5V288.88l-1.43-2.45.18-7.78-1.52-.71-1.84,1-6.73-3.14,0-1.86-3.53-1.65-.46-5,1.29-3.54-1.9-3-.7-7.44,5.3-7.35,3.3.56.84-3.06-1-2.06,1.56-.13,2.93-2.27.41-2,1.33-1,3.08-.69,1,.94-.64,1.27,1.37,1.28,4.9-1.8,11.59,3.59-.58-7.91L225,228.35l1.71-1.26,1.87.15.15-3.82-6.25-.35-1.83-2.48-3.15-.18-1.66-2.36-3-.68-.91-4.27-2.5.13-.78-1.52-5.06.25-1.14,1.62-2.83.14.23,2.88-3.26-.5-2-2.12-3,.15L189,210.4l-2.67-.31-1.75-2,1.37-2-.7-1,1.72-.74.3-1.61,4-.26,1.85-.8,2.1.4,2.81-1-.91-1.11.85-.37-6.59-.79-.27-1.79-1.87-.7,1.07-2-3-.75-3,2.82-3.48-.82-3.4,1.41-1.14,2.2-1.5.14-1.59,2.38.86,1.81L173,205.69l-2.88.4-1.78-1.55L166.82,206l-2.12-3.38.23-1-2.09-1.82-.85-3.51-2.48.6,2.67-3.59-6,.7-.76-.66-1,.89-1.87-1.5,1.33-.74-.72-.63c17.9-4.4,35.92-3.53,52,3.06a81.28,81.28,0,0,1,30.92,19.78l-.39,4.5,3.46,1.77,2.15,5.41-2.14,1.4-1.46-2.6-.43,4.92-2.67,1.71L238.1,235l-1.69,3h-1.67l-1.33,1.87.94,5.33,8.82,6.3,1.07,3.07,2.49,2.37,1.33,4.34-1.88,2.31-1,1.27.38,1.77,6.91-1.35,1.62.82,6.38,8.53.67,5.19-5,10.7-4,1.2-1.38,2.59,1,1.42-6.27,11.77-2.09.65-1.9,3.56-8.07,4.88.53,3.16-3.34,4.91-6.19.06-3,2.56,2.11,2.82.56,4.5-1.87,6.19-1.24.4-.91.3-.44,1.48-2,.66Z" style="fill:#fff;opacity:0.4"></path><polygon points="126.61 331.4 126.41 330.67 124.84 329.87 124.09 327.19 125.06 325.89 124.64 324.39 125.56 323.9 125.43 322.77 127.89 322.64 123.93 319.77 122.47 320.75 120.72 320.14 120.72 318.77 119.18 318.27 120.72 315.76 120.72 314.14 122.82 312.2 121.3 310.39 122.05 309.56 121.64 308.14 124.76 308.14 125.77 309.17 129.53 311.76 130.42 313.9 131.64 315.14 131.96 316.22 133.15 316.93 133.98 319.79 133.19 320.44 133.39 321.14 132.87 322.79 132.68 328.39 130.94 328.94 130.48 330.4 126.61 331.4" style="fill:#fff;opacity:0.4"></polygon><polygon points="133.39 211.09 134.01 209.82 134.68 205.34 135.99 205.75 136.31 205.09 134.56 203.59 135.16 201.97 134.85 201.12 136.31 199.78 139.81 199.78 140.97 199.49 141.81 199.96 144.56 198.59 144.91 199.78 146.31 199.78 145.81 202.84 144.99 204.43 145.81 205.72 142.13 210 141.56 211.09 137.93 211.84 137.76 213.26 136.31 214.09 133.39 211.09" style="fill:#fff;opacity:0.4"></polygon><polygon points="176.58 207.84 177.78 206.34 180.58 206.34 180.58 209.09 178.58 211.84 176.58 210.59 176.58 207.84" style="fill:#fff;opacity:0.4"></polygon><polygon points="202.17 218.1 202.76 217.31 202.92 216.36 203.75 215.26 204.51 214.98 205.17 214.09 205.87 214.96 207.43 215.16 208.43 218.1 211.16 217.37 211.89 219.57 211.16 220.22 211.16 221.1 208.68 221.1 207.57 222.15 208.23 222.71 207.79 223.16 208.14 223.46 206.83 224.63 206.56 224.41 206.12 224.87 204.87 224.7 203.92 225.6 203.25 225.17 202.51 225.6 201.59 224.1 199.27 224.1 198.75 223.66 197.52 223.66 195.13 221.67 195.01 220.55 194.17 219.85 194.87 218.77 196.17 218.6 197.32 218.96 198.05 218.68 199.27 218.86 200.17 219.85 200.67 219.41 201.43 219.47 202.17 218.1" style="fill:#fff;opacity:0.4"></polygon><polygon points="241.85 238.36 245.61 236.35 249.17 237.1 251.98 240.29 251.91 241.98 252.86 243.11 252.86 245.92 251.73 246 251.11 247.61 247.36 247.61 247.36 243.86 244.29 243.3 243.39 239.89 241.85 238.36" style="fill:#fff;opacity:0.4"></polygon><polygon points="188.5 215.85 191.33 217.6 191.33 221.85 188.5 224.1 187.96 223.53 186.94 223.65 185.33 220.76 184.58 219.97 185.15 219.38 185.28 218.27 187.01 216.45 188.1 216.27 188.5 215.85" style="fill:#fff;opacity:0.4"></polygon><polygon points="123.3 215.85 127.52 214.09 129.53 214.97 131.31 219.85 130.22 220.09 128.59 221.63 125.95 222.2 124.84 221.26 123.3 221.6 119.55 219.85 120.72 216.72 122.39 216.82 123.3 215.85" style="fill:#fff;opacity:0.4"></polygon><polygon points="152.57 196.34 156.07 197.34 158.32 201.12 155.44 203.59 150.81 203.59 150.81 198.59 152.57 196.34" style="fill:#fff;opacity:0.4"></polygon><path d="M256.2,245.61s11.2,43.19-33.32,77.46-108,14.28-108,14.28c31.46,30.81,84.31,33.06,119.39.47C259.86,312.39,266.88,280,256.2,245.61Z" style="opacity:0.2"></path><path d="M162.42,238.65a1.78,1.78,0,0,1-1.53-.2,1.81,1.81,0,0,1-.55-2.5c5.5-8.56,16.95-8.45,17.43-8.45a1.81,1.81,0,1,1-.06,3.62c-.1,0-9.93-.06-14.32,6.79A1.77,1.77,0,0,1,162.42,238.65Z" style="fill:#263238"></path><path d="M221.36,227.73a1.83,1.83,0,0,1-1.39-.12c-8.08-4.15-13.67-1.51-13.91-1.41a1.83,1.83,0,0,1-2.42-.82,1.8,1.8,0,0,1,.81-2.41c.3-.15,7.38-3.61,17.18,1.43a1.81,1.81,0,0,1-.27,3.33Z" style="fill:#263238"></path><path d="M210.56,287.11c-2.41,4.52-5,13.12-5,13.12-.82-.1-1.64-.2-2.46-.34-11.1-1.59-15.72-6-17.48-10.41a14.41,14.41,0,0,1-.82-6.8,14,14,0,0,1,.88-3.82c5.38,4.37,15.61,6.65,21.13,7.65C209.09,286.94,210.56,287.11,210.56,287.11Z" style="fill:#263238"></path><path d="M206.78,286.51l-1.58,3.82c-10.45-1.52-17.61-4-20.43-7.65a14,14,0,0,1,.88-3.82C191,283.23,201.26,285.51,206.78,286.51Z" style="fill:#fff"></path><path d="M203.07,299.89c-11.1-1.59-15.72-6-17.48-10.41a36.11,36.11,0,0,1,12,4.22A13.55,13.55,0,0,1,203.07,299.89Z" style="fill:#de5753"></path><path d="M182.1,257.39c.81,2.88-.09,5.64-2,6.18s-4.12-1.36-4.92-4.23.09-5.64,2-6.18S181.29,254.52,182.1,257.39Z" style="fill:#263238"></path><path d="M176.42,253.53l5.56-4.2S180.34,255.45,176.42,253.53Z" style="fill:#263238"></path><path d="M217.65,246.78c.8,2.88-.1,5.64-2,6.18s-4.12-1.36-4.93-4.23.1-5.64,2-6.17S216.84,243.91,217.65,246.78Z" style="fill:#263238"></path><path d="M212,242.92l5.56-4.2S215.89,244.84,212,242.92Z" style="fill:#263238"></path></g><g id="freepik--Moon--inject-29"><circle cx="317.15" cy="142.38" r="44.98" transform="translate(105.71 418.34) rotate(-76.72)" style="fill:#263238"></circle><circle cx="317.15" cy="142.38" r="44.98" transform="translate(105.71 418.34) rotate(-76.72)" style="fill:#fff;opacity:0.8"></circle><path d="M288.06,126.38c-1.79-2,1.26-7.64,6.81-12.49s11.5-7.11,13.3-5-1.26,7.64-6.81,12.49S289.86,128.44,288.06,126.38Z" style="opacity:0.30000000000000004"></path><path d="M288.65,127.05c-1.47-1.68,1.84-7,7.39-11.82s11.24-7.41,12.71-5.72-1.84,7-7.39,11.82S290.12,128.74,288.65,127.05Z" style="fill:#fff;opacity:0.4"></path><path d="M334.72,154.83c5.47,1.76,7.95,9.25,5.55,16.74s-8.8,12.13-14.27,10.37-7.95-9.26-5.55-16.74S329.25,153.07,334.72,154.83Z" style="opacity:0.30000000000000004"></path><path d="M333.79,154.53c4.95,1.59,7,8.95,4.61,16.44s-8.37,12.26-13.33,10.67-7-9-4.62-16.44S328.83,152.94,333.79,154.53Z" style="fill:#fff;opacity:0.4"></path><path d="M339.09,147.68c1.11.36,1.61,1.88,1.12,3.4s-1.78,2.45-2.89,2.1-1.61-1.88-1.12-3.4S338,147.33,339.09,147.68Z" style="opacity:0.30000000000000004"></path><path d="M338.55,147.51c.81.26,1.07,1.7.59,3.22s-1.55,2.53-2.36,2.27-1.07-1.7-.58-3.22S337.74,147.25,338.55,147.51Z" style="fill:#fff;opacity:0.4"></path><path d="M335.43,111.38c1.29-1.27,4.34-.27,6.83,2.25s3.45,5.58,2.16,6.85-4.35.27-6.83-2.24S334.14,112.65,335.43,111.38Z" style="opacity:0.30000000000000004"></path><path d="M335,111.8c1.06-1,3.92.14,6.41,2.66s3.63,5.39,2.58,6.44-3.93-.15-6.41-2.66S334,112.84,335,111.8Z" style="fill:#fff;opacity:0.4"></path><path d="M357.53,134.52c1.52,0,2.69,2.47,2.61,5.43s-1.37,5.33-2.89,5.3-2.69-2.48-2.61-5.44S356,134.48,357.53,134.52Z" style="opacity:0.30000000000000004"></path><path d="M357,134.5c1.25,0,2.2,2.46,2.12,5.43s-1.15,5.33-2.39,5.3-2.2-2.46-2.12-5.42S355.79,134.47,357,134.5Z" style="fill:#fff;opacity:0.4"></path><path d="M285.53,174.38s36,18.64,58.74-3.44c19.38-18.83,9.36-54.89,9.36-54.89,11.83,17,11.67,42-4.86,58.33C330.58,192.26,302.22,190.79,285.53,174.38Z" style="opacity:0.2"></path><path d="M286.91,133.42c-1.27-.41-3,1.31-3.75,3.83s-.42,4.89.85,5.3,2.95-1.32,3.75-3.84S288.18,133.82,286.91,133.42Z" style="opacity:0.30000000000000004"></path><path d="M287.32,133.55c-1-.33-2.53,1.44-3.33,4s-.61,4.84.44,5.17,2.53-1.45,3.33-4S288.37,133.88,287.32,133.55Z" style="fill:#fff;opacity:0.4"></path><path d="M295.43,172.36c-2.06,1.53-6.3-.69-9.47-5s-4.07-9-2-10.49,6.3.68,9.47,4.94S297.49,170.82,295.43,172.36Z" style="opacity:0.30000000000000004"></path><path d="M296.1,171.86c-1.69,1.25-5.63-1.19-8.8-5.45s-4.37-8.74-2.68-10,5.63,1.18,8.8,5.44S297.79,170.6,296.1,171.86Z" style="fill:#fff;opacity:0.4"></path><path d="M322.12,141c-.13,2.42-1.54,4.33-3.13,4.22s-2.74-2.15-2.61-4.57,1.55-4.3,3.14-4.21S322.26,138.55,322.12,141Z" style="fill:#263238"></path><path d="M297.64,135.45c-.13,2.42-1.54,4.33-3.13,4.22s-2.74-2.15-2.61-4.57,1.55-4.3,3.14-4.22S297.78,133,297.64,135.45Z" style="fill:#263238"></path><path d="M317.83,123.23a1.63,1.63,0,0,1-.32-.82,1.47,1.47,0,0,1,1.51-1.36,14,14,0,0,1,11.4,6.26,1.43,1.43,0,0,1-.5,1.95h0a1.5,1.5,0,0,1-2-.5h0a11.13,11.13,0,0,0-9.19-4.8A1.59,1.59,0,0,1,317.83,123.23Z" style="fill:#263238"></path><path d="M287.93,120.25a1.71,1.71,0,0,1-.74-.47,1.46,1.46,0,0,1,.42-2,14,14,0,0,1,12.9-1.66,1.42,1.42,0,0,1,.74,1.87h0a1.48,1.48,0,0,1-1.87.74h0a11.17,11.17,0,0,0-10.26,1.54A1.54,1.54,0,0,1,287.93,120.25Z" style="fill:#263238"></path><path d="M304,160.71c4.29,0,16.72-.71,23.65-8.49a.78.78,0,0,0-.06-1.1.77.77,0,0,0-1.1.06c-7.78,8.74-23.71,7.94-23.88,7.94a.78.78,0,0,0-.82.73.77.77,0,0,0,.73.82C302.59,160.68,303.12,160.71,304,160.71Z" style="fill:#263238"></path></g><g id="freepik--Satelite--inject-29"><polygon points="382.42 305.46 397.06 296.02 392.53 308.42 381.58 308.42 382.42 305.46" style="fill:#263238"></polygon><polygon points="382.42 305.46 397.06 296.02 392.53 308.42 381.58 308.42 382.42 305.46" style="fill:#fff;opacity:0.2"></polygon><polygon points="382.72 305.6 396.9 296.45 392.53 308.42 381.84 308.42 382.72 305.6" style="fill:#fff;opacity:0.4"></polygon><polygon points="397.09 314.15 408.38 287.72 401.13 287.72 390.74 314.63 397.09 314.15" style="fill:#263238"></polygon><polygon points="397.09 314.15 408.38 287.72 401.13 287.72 390.74 314.63 397.09 314.15" style="fill:#fff;opacity:0.2"></polygon><polygon points="397.09 314.15 408.29 287.94 401.25 287.94 390.96 314.61 397.09 314.15" style="fill:#fff;opacity:0.4"></polygon><polygon points="397.54 314.05 408.73 287.56 414.99 287.4 404.21 313.1 397.54 314.05" style="fill:#263238"></polygon><polygon points="397.54 314.05 408.73 287.56 414.99 287.4 404.21 313.1 397.54 314.05" style="fill:#fff;opacity:0.2"></polygon><polygon points="397.66 314.04 408.9 287.72 414.92 287.56 404.21 313.1 397.66 314.04" style="fill:#fff;opacity:0.4"></polygon><polygon points="415.34 287.24 421.34 287.11 410.59 312.03 404.6 312.9 415.34 287.24" style="fill:#263238"></polygon><polygon points="415.34 287.24 421.34 287.11 410.59 312.03 404.6 312.9 415.34 287.24" style="fill:#fff;opacity:0.2"></polygon><polygon points="415.45 287.4 421.29 287.23 410.59 312.03 404.73 312.88 415.45 287.4" style="fill:#fff;opacity:0.4"></polygon><polygon points="421.72 287.11 426.98 286.95 416.65 311.17 410.91 312 421.72 287.11" style="fill:#263238"></polygon><polygon points="421.72 287.11 426.98 286.95 416.65 311.17 410.91 312 421.72 287.11" style="fill:#fff;opacity:0.2"></polygon><polygon points="421.84 287.23 426.95 287.04 416.65 311.17 411.08 311.98 421.84 287.23" style="fill:#fff;opacity:0.4"></polygon><polygon points="376.28 308.5 367.04 333.9 384.32 329.12 392.87 304.49 376.28 308.5" style="fill:#204D99"></polygon><polygon points="376.28 308.5 367.04 333.9 384.32 329.12 392.87 304.49 376.28 308.5" style="opacity:0.2"></polygon><polygon points="352.16 294.39 376.28 308.5 367.04 333.9 343.53 318.29 352.16 294.39" style="fill:#204D99"></polygon><polygon points="352.16 294.39 376.28 308.5 367.04 333.9 343.53 318.29 352.16 294.39" style="opacity:0.05"></polygon><polygon points="352.16 294.39 369.95 293.02 392.87 304.49 376.28 308.5 352.16 294.39" style="fill:#204D99"></polygon><polygon points="352.16 294.39 369.95 293.02 392.87 304.49 376.28 308.5 352.16 294.39" style="fill:#fff;opacity:0.4"></polygon><polygon points="382.88 284.99 383.55 285.33 377.82 300.73 376.96 300.46 382.88 284.99" style="fill:#263238"></polygon><polygon points="382.88 284.99 383.14 285.12 377.25 300.55 376.96 300.46 382.88 284.99" style="fill:#fff;opacity:0.4"></polygon><polygon points="383.55 285.33 383.14 285.12 377.25 300.55 377.82 300.73 383.55 285.33" style="fill:#fff;opacity:0.2"></polygon><polygon points="299.73 291.66 287.85 330.31 301.53 328.18 313.59 291.14 299.73 291.66" style="fill:#263238"></polygon><polygon points="299.73 291.66 287.85 330.31 301.53 328.18 313.59 291.14 299.73 291.66" style="fill:#fff;opacity:0.2"></polygon><polygon points="299.95 291.87 288.14 330.27 301.53 328.18 313.49 291.45 299.95 291.87" style="fill:#fff;opacity:0.4"></polygon><polygon points="314.19 291.14 302.3 328.18 315.21 326.29 327.01 290.63 314.19 291.14" style="fill:#263238"></polygon><polygon points="314.19 291.14 302.3 328.18 315.21 326.29 327.01 290.63 314.19 291.14" style="fill:#fff;opacity:0.2"></polygon><polygon points="314.4 291.45 302.61 328.13 315.21 326.29 326.94 290.85 314.4 291.45" style="fill:#fff;opacity:0.4"></polygon><polygon points="327.53 290.64 315.77 325.99 327.53 324.5 339.29 290.33 327.53 290.64" style="fill:#263238"></polygon><polygon points="327.53 290.64 315.77 325.99 327.53 324.5 339.29 290.33 327.53 290.64" style="fill:#fff;opacity:0.2"></polygon><polygon points="327.69 290.85 316.08 325.95 327.53 324.5 339.19 290.63 327.69 290.85" style="fill:#fff;opacity:0.4"></polygon><polygon points="339.76 290.03 327.87 324.33 339.03 322.74 350.58 289.65 339.76 290.03" style="fill:#263238"></polygon><polygon points="339.76 290.03 327.87 324.33 339.03 322.74 350.58 289.65 339.76 290.03" style="fill:#fff;opacity:0.2"></polygon><polygon points="339.89 290.25 328.14 324.29 339.03 322.74 350.5 289.86 339.89 290.25" style="fill:#fff;opacity:0.4"></polygon><polygon points="360.77 308.16 359.38 312.22 341.98 315.69 348.05 298.75 360.77 308.16" style="fill:#263238"></polygon><polygon points="360.77 308.16 359.38 312.22 341.98 315.69 348.05 298.75 360.77 308.16" style="fill:#fff;opacity:0.2"></polygon><polygon points="360.66 308.5 359.38 312.22 342.29 315.63 348.18 299.1 360.66 308.5" style="fill:#fff;opacity:0.4"></polygon><path d="M393.25,306.27l-16.59,30.9c-4.42-2.15-4.46-14.68-1.15-21.9C379.59,308.26,388.66,304.81,393.25,306.27Z" style="fill:#263238"></path><g style="opacity:0.2"><path d="M378,334.68l-.72,1.34c-4.11-3.87-3.76-15-1.77-20.75C372.39,327.65,378,334.68,378,334.68Z"></path></g><g style="opacity:0.30000000000000004"><path d="M393.25,306.27l-16.59,30.9c-4.42-2.15-4.46-14.68-1.15-21.9C379.59,308.26,388.66,304.81,393.25,306.27Z" style="fill:#fff"></path></g><path d="M376.54,314.3c6.56-5.71,11.22-6.61,15.33-5.45l.67-1.25C387.46,307,382.72,308.2,376.54,314.3Z" style="fill:#fff;opacity:0.2"></path><path d="M378.56,318c-4.86,8.41-5.94,16.88-2.41,18.91s10.32-3.13,15.17-11.54,5.93-16.88,2.41-18.91S383.41,309.54,378.56,318Z" style="fill:#204D99"></path><path d="M378.56,318c-4.86,8.41-5.94,16.88-2.41,18.91s10.32-3.13,15.17-11.54,5.93-16.88,2.41-18.91S383.41,309.54,378.56,318Z" style="fill:#fff;opacity:0.4"></path><path d="M378.58,317.63a31.77,31.77,0,0,0-2.34,5.22,3.31,3.31,0,0,0,1.19,3.87c1.69,1,4.95-1.51,7.28-5.55s2.85-8.1,1.16-9.08c-1-.57-2.9-.2-4.28,1.39A26.9,26.9,0,0,0,378.58,317.63Z" style="opacity:0.2"></path><path d="M387.46,320.5,383,318.71l-2.5-2.7a2.63,2.63,0,0,0-1.8,2.93l3.4,1.12,3.37,3.81Z" style="fill:#263238"></path><path d="M387.46,320.5,383,318.71l-2.5-2.7a2.63,2.63,0,0,0-1.8,2.93l3.4,1.12,3.37,3.81Z" style="fill:#fff;opacity:0.2"></path><path d="M385.78,321.77c-.54.93-.66,1.87-.27,2.1s1.14-.35,1.68-1.28.66-1.87.27-2.09S386.32,320.84,385.78,321.77Z" style="fill:#263238"></path><path d="M385.78,321.77c-.54.93-.66,1.87-.27,2.1s1.14-.35,1.68-1.28.66-1.87.27-2.09S386.32,320.84,385.78,321.77Z" style="fill:#fff;opacity:0.4"></path><path d="M379.13,317.09a3.16,3.16,0,0,0-.39,1.85l3.4,1.12,3.37,3.81c-.42-.32-.12-1.58.36-2.24C385.87,321.63,384.55,320.79,379.13,317.09Z" style="opacity:0.2"></path><polygon points="387.16 320.46 382.93 318.87 380.29 316.11 380.13 316.18 382.86 318.9 386.92 320.55 387.16 320.46" style="fill:#fff;opacity:0.2"></polygon><g style="opacity:0.2"><path d="M386,321.89c-.46.8-.56,1.6-.23,1.79s1-.29,1.43-1.09.57-1.59.23-1.79S386.45,321.1,386,321.89Z"></path><path d="M386,321.89c-.46.8-.56,1.6-.23,1.79s1-.29,1.43-1.09.57-1.59.23-1.79S386.45,321.1,386,321.89Z" style="opacity:0.4"></path></g><polygon points="379 334.91 379.21 335.25 391.31 329.35 391.16 329.04 379 334.91" style="fill:#263238"></polygon><polygon points="379 334.91 379.21 335.25 391.31 329.35 391.16 329.04 379 334.91" style="fill:#fff;opacity:0.1"></polygon><polygon points="394.79 312.48 395.11 312.48 395.45 323.08 395.03 323.08 394.79 312.48" style="fill:#263238"></polygon><polygon points="394.79 312.48 395.11 312.48 395.45 323.08 395.03 323.08 394.79 312.48" style="fill:#fff;opacity:0.1"></polygon><polygon points="380.6 315.07 395.45 323.08 395.26 323.32 380.32 315.35 380.6 315.07" style="fill:#263238"></polygon><polygon points="380.6 315.07 395.45 323.08 395.26 323.32 380.32 315.35 380.6 315.07" style="fill:#fff;opacity:0.1"></polygon><polygon points="379.95 316.1 380.21 315.78 391.42 328.88 391.24 329.14 379.95 316.1" style="fill:#263238"></polygon><polygon points="379.95 316.1 380.21 315.78 391.42 328.88 391.24 329.14 379.95 316.1" style="fill:#fff;opacity:0.1"></polygon><path d="M392,325.67c-1.09,1.89-1.33,3.8-.54,4.25s2.32-.7,3.41-2.59,1.33-3.79.54-4.25S393.13,323.78,392,325.67Z" style="fill:#263238"></path><path d="M392,325.67c-1.09,1.89-1.33,3.8-.54,4.25s2.32-.7,3.41-2.59,1.33-3.79.54-4.25S393.13,323.78,392,325.67Z" style="fill:#fff;opacity:0.2"></path><path d="M392.33,325.84c-1,1.7-1.2,3.41-.48,3.82s2.08-.63,3.06-2.33,1.19-3.41.48-3.82S393.31,324.15,392.33,325.84Z" style="opacity:0.1"></path><polygon points="359.38 312.22 343.53 318.29 344.69 315.07 359.38 312.22" style="opacity:0.2"></polygon></g></svg>